<?xml version="1.0" encoding="UTF-8" standalone="no"?>
<svg
   width="330.00055pt"
   height="260pt"
   viewBox="0 0 785.17372 610.16835"
   version="1.1"
   id="svg10"
   sodipodi:docname="Valorant_logo_-_black_color_version.svg"
   inkscape:export-filename="..\Documents\GitHub\Valorant Statistics\WEB\assets\logo\black.svg"
   inkscape:export-xdpi="96"
   inkscape:export-ydpi="96"
   xmlns:inkscape="http://www.inkscape.org/namespaces/inkscape"
   xmlns:sodipodi="http://sodipodi.sourceforge.net/DTD/sodipodi-0.dtd"
   xmlns="http://www.w3.org/2000/svg"
   xmlns:svg="http://www.w3.org/2000/svg">
  <defs
     id="defs10" />
  <sodipodi:namedview
     id="namedview10"
     pagecolor="#ffffff"
     bordercolor="#000000"
     borderopacity="0.25"
     inkscape:showpageshadow="2"
     inkscape:pageopacity="0.0"
     inkscape:pagecheckerboard="0"
     inkscape:deskcolor="#d1d1d1"
     inkscape:document-units="pt" />
  <path
     id="path1"
     style="display:inline;fill:#ffffff;fill-opacity:1;fill-rule:nonzero;stroke:none;stroke-width:1.01442"
     d="m 650.64501,-4.8201007 c -0.28715,0.02011 -0.57847,0.08413 -0.86435,0.191693 -0.864,0.415076 -1.57397,1.022707 -2.13302,1.812365 C 573.84188,89.077846 500.01489,180.96196 426.24979,272.87609 c -2.31754,2.03489 -0.53039,6.25414 2.6105,5.7682 53.19179,0.0709 106.39396,-0.009 159.58574,0.0418 4.6046,0.23285 9.21222,-1.78207 12.02784,-5.42664 16.88353,-21.02717 33.786,-42.05394 50.66955,-63.09123 2.47001,-2.9764 3.30319,-6.89619 3.15072,-10.6825 -0.0508,-66.82731 0.0395,-133.655139 -0.0418,-200.48245675 0.2935,-2.09056795 -1.59724,-3.96415795 -3.60731,-3.82339395 z m -515.91418,0.045309 c -0.67278,-0.125282 -1.40414,-0.0078 -2.20969,0.470518 -1.68734,0.82003 -1.62851,2.864465 -1.65901,4.44378095 0.0407,66.79694375 0.0209,133.60187275 0.0209,200.39881275 -0.15247,3.63445 1.06786,7.25051 3.42607,10.04469 55.56015,69.14566 111.09032,138.31057 166.65048,207.44612 2.63264,3.33073 6.73804,5.45635 11.02754,5.40573 53.54755,0 107.10818,0.0433 160.65573,-0.0174 3.10023,0.45557 4.83802,-3.78742 2.5408,-5.77169 C 363.35182,278.2914 251.37561,139.03727 139.5336,-0.31706975 138.22998,-1.8432347 136.74916,-4.3989447 134.73083,-4.7747917 Z" />
  <text
     xml:space="preserve"
     style="font-style:normal;font-variant:normal;font-weight:normal;font-stretch:normal;font-size:146.653px;font-family:VALORANT;-inkscape-font-specification:VALORANT;opacity:1;fill:#ffffff;fill-opacity:1;fill-rule:nonzero;stroke:none;stroke-width:0.183315;stroke-linecap:round;stroke-linejoin:round;stroke-dasharray:none"
     x="-7.9192624"
     y="612.09851"
     id="text29"
     transform="scale(1.0013009,0.99870079)"><tspan
       sodipodi:role="line"
       id="tspan29"
       style="font-size:146.653px;fill:#ffffff;fill-opacity:1;stroke-width:0.183316"
       x="-7.9192624"
       y="612.09851">STaTISTICS</tspan></text>
</svg>
