<?xml version="1.0" encoding="UTF-8" standalone="no"?>
<svg
   id="Layer_1"
   data-name="Layer 1"
   viewBox="0 0 24 24"
   width="512"
   height="512"
   version="1.1"
   xmlns="http://www.w3.org/2000/svg"
   xmlns:svg="http://www.w3.org/2000/svg">
  <defs
     id="defs1" />
  <path
     d="m 22.5,10.5 h -3.151 a 7.455,7.455 0 0 0 -1.1,-2.632 L 20.481,5.636 A 1.5,1.5 0 0 0 18.36,3.515 L 16.132,5.747 A 7.455,7.455 0 0 0 13.5,4.647 V 1.5 a 1.5,1.5 0 0 0 -3,0 v 3.151 a 7.455,7.455 0 0 0 -2.632,1.1 L 5.636,3.515 A 1.5,1.5 0 0 0 3.515,5.636 L 5.747,7.868 A 7.455,7.455 0 0 0 4.647,10.5 H 1.5 a 1.5,1.5 0 0 0 0,3 h 3.151 a 7.455,7.455 0 0 0 1.1,2.632 l -2.236,2.232 a 1.5,1.5 0 0 0 2.121,2.121 l 2.232,-2.232 a 7.455,7.455 0 0 0 2.632,1.1 V 22.5 a 1.5,1.5 0 0 0 3,0 v -3.151 a 7.455,7.455 0 0 0 2.632,-1.1 l 2.232,2.232 a 1.5,1.5 0 0 0 2.121,-2.121 l -2.232,-2.232 a 7.455,7.455 0 0 0 1.1,-2.632 H 22.5 a 1.5,1.5 0 0 0 0,-2.996 z m -10.5,6 a 4.5,4.5 0 0 1 0,-9 4.5,4.5 0 0 1 0,9 z"
     id="path1"
     style="fill:#fefefe;fill-opacity:1" />
</svg>
