<?xml version="1.0" encoding="UTF-8" standalone="no"?>
<svg
   id="Layer_1"
   data-name="Layer 1"
   viewBox="0 0 24 24"
   width="512"
   height="512"
   version="1.1"
   sodipodi:docname="moon.svg"
   inkscape:export-filename="moon.png"
   inkscape:export-xdpi="96"
   inkscape:export-ydpi="96"
   xmlns:inkscape="http://www.inkscape.org/namespaces/inkscape"
   xmlns:sodipodi="http://sodipodi.sourceforge.net/DTD/sodipodi-0.dtd"
   xmlns="http://www.w3.org/2000/svg"
   xmlns:svg="http://www.w3.org/2000/svg">
  <defs
     id="defs1" />
  <sodipodi:namedview
     id="namedview1"
     pagecolor="#ffffff"
     bordercolor="#000000"
     borderopacity="0.25"
     inkscape:showpageshadow="2"
     inkscape:pageopacity="0.0"
     inkscape:pagecheckerboard="0"
     inkscape:deskcolor="#d1d1d1" />
  <path
     d="m 15,24 a 12,12 0 1 1 4.058,-23.29 2.93,2.93 0 0 1 0.814,5.067 c -5.1,3.92 -5.088,8.539 0,12.446 A 2.93,2.93 0 0 1 19.056,23.29 12.2,12.2 0 0 1 15,24 Z M 15,3 a 9,9 0 1 0 2.925,17.508 c -6.511,-5.065 -6.489,-11.969 0,-17.016 A 9.322,9.322 0 0 0 15,3 Z"
     id="path1"
     style="fill:#000000;fill-opacity:1" />
</svg>
