<?xml version="1.0" encoding="UTF-8" standalone="no"?>
<svg
   id="Filled"
   viewBox="0 0 24 24"
   width="512"
   height="512"
   version="1.1"
   sodipodi:docname="globo.svg"
   xmlns:inkscape="http://www.inkscape.org/namespaces/inkscape"
   xmlns:sodipodi="http://sodipodi.sourceforge.net/DTD/sodipodi-0.dtd"
   xmlns="http://www.w3.org/2000/svg"
   xmlns:svg="http://www.w3.org/2000/svg">
  <defs
     id="defs1" />
  <sodipodi:namedview
     id="namedview1"
     pagecolor="#ffffff"
     bordercolor="#000000"
     borderopacity="0.25"
     inkscape:showpageshadow="2"
     inkscape:pageopacity="0.0"
     inkscape:pagecheckerboard="0"
     inkscape:deskcolor="#d1d1d1" />
  <path
     d="M 12,0 A 12,12 0 1 0 24,12 12.013,12.013 0 0 0 12,0 Z m 3.222,7 H 8.778 A 19.614,19.614 0 0 1 12,2.412 19.57,19.57 0 0 1 15.222,7 Z m 0.8,2 a 10.211,10.211 0 0 1 0.476,3 10.211,10.211 0 0 1 -0.476,3 H 7.976 A 10.211,10.211 0 0 1 7.5,12 10.211,10.211 0 0 1 7.976,9 Z M 9.4,2.356 A 19.676,19.676 0 0 0 6.574,7 H 3.353 A 10.031,10.031 0 0 1 9.4,2.356 Z M 2,12 A 9.986,9.986 0 0 1 2.461,9 H 5.9 a 12.016,12.016 0 0 0 -0.4,3 12.016,12.016 0 0 0 0.4,3 H 2.461 A 9.986,9.986 0 0 1 2,12 Z m 1.353,5 H 6.574 A 19.676,19.676 0 0 0 9.4,21.644 10.031,10.031 0 0 1 3.353,17 Z m 5.425,0 h 6.444 A 19.614,19.614 0 0 1 12,21.588 19.57,19.57 0 0 1 8.778,17 Z m 5.827,4.644 A 19.676,19.676 0 0 0 17.426,17 h 3.221 a 10.031,10.031 0 0 1 -6.042,4.644 z M 22,12 a 9.986,9.986 0 0 1 -0.461,3 H 18.1 a 12.016,12.016 0 0 0 0.4,-3 12.016,12.016 0 0 0 -0.4,-3 h 3.437 A 9.986,9.986 0 0 1 22,12 Z M 17.426,7 A 19.676,19.676 0 0 0 14.605,2.356 10.031,10.031 0 0 1 20.647,7 Z"
     id="path1"
     style="fill:#ffffff;fill-opacity:1" />
</svg>
