<?xml version="1.0" encoding="UTF-8" standalone="no"?>
<!-- Generator: Adobe Illustrator 26.0.1, SVG Export Plug-In . SVG Version: 6.00 Build 0)  -->

<svg
   version="1.1"
   id="Capa_1"
   x="0px"
   y="0px"
   viewBox="0 0 24 24"
   xml:space="preserve"
   width="512"
   height="512"
   sodipodi:docname="youtube-light.svg"
   xmlns:inkscape="http://www.inkscape.org/namespaces/inkscape"
   xmlns:sodipodi="http://sodipodi.sourceforge.net/DTD/sodipodi-0.dtd"
   xmlns="http://www.w3.org/2000/svg"
   xmlns:svg="http://www.w3.org/2000/svg"><defs
   id="defs1" /><sodipodi:namedview
   id="namedview1"
   pagecolor="#ffffff"
   bordercolor="#000000"
   borderopacity="0.25"
   inkscape:showpageshadow="2"
   inkscape:pageopacity="0.0"
   inkscape:pagecheckerboard="0"
   inkscape:deskcolor="#d1d1d1" />
<g
   id="XMLID_184_"
   style="fill:#ffffff;fill-opacity:1">
	<path
   d="M 23.498,6.186 C 23.222,5.147 22.409,4.328 21.376,4.05 19.505,3.546 12,3.546 12,3.546 c 0,0 -7.505,0 -9.377,0.504 C 1.591,4.328 0.778,5.146 0.502,6.186 0,8.07 0,12 0,12 c 0,0 0,3.93 0.502,5.814 0.276,1.039 1.089,1.858 2.122,2.136 1.871,0.504 9.376,0.504 9.376,0.504 0,0 7.505,0 9.377,-0.504 1.032,-0.278 1.845,-1.096 2.122,-2.136 C 24,15.93 24,12 24,12 24,12 24,8.07 23.498,6.186 Z M 9.546,15.569 V 8.431 L 15.818,12 Z"
   id="path1"
   style="fill:#ffffff;fill-opacity:1" />
</g>















</svg>
